<svg xmlns="http://www.w3.org/2000/svg" viewBox="0 0 146.23 156.97"><defs><style>.cls-1{fill:#cf536d;}</style></defs><title>page-compositions</title><g id="Layer_2" data-name="Layer 2"><g id="Layer_1-2" data-name="Layer 1"><path d="M96.66,59.54c6-11.2,66.37,12.82,45,67.89C124.78,164.56,64.53,175.68,49.41,107,38.66,104-6.23,122.51.73,94.48,9-2.08-17.93,4.37,44.17,1.6,102.41,2.48,88.64-17,96.66,59.54ZM6.37,100.27c5.33,0,14.72,1.13,18.7-4.45,3.28,5.37,1,3.91,22.55,3.24,6.23,3.37,7.68-15,17-24.7.12-6.9,31-13.77,25-18-3.31,2.74,4.35-43.33-5.91-47.49-5.1,3.3-53.55-3.7-64.07,8.35C15.76,16,20.76,12.75,9,12.15,6.34,37.05,7.8,68.67,6.37,100.27Zm50.73,6.64c-1.26,31.44,37.37,52.7,66.65,31.44,31-27.06,18.9-66.22-26.81-72.57C99.35,113.79,114.55,103.79,57.1,106.91ZM58,98.57c10.61-.19,23-1.24,37.08-1.09Q93.53,82.2,91.94,66.91C76.84,70.08,63.3,81.53,58,98.57Z"/><path d="M21.78,126.44c7.4-1,4.44,12.36,12.4,9.59,1-.64,6.29-1.93,6.72,1.47,1.75,2.48-9,13.51-19.09-1.07C13.83,140.94,6.2,131.27,21.78,126.44Z"/><path d="M119.83,19.73c.72-5.14,1.44-14.33,6.32.21,7.63-3.09,10.15,9.82-1.65,7.62.86,7.08-5.36,17.4-5.48-.54C110.66,28.74,102.44,18,119.83,19.73Z"/><path class="cls-1" d="M58,98.57C62.34,84.42,74.85,70,91.94,66.91q1.59,15.3,3.18,30.57C86.69,97.32,74.83,98,58,98.57Z"/><path d="M28.92,29.62c-.19,8.65-14.76-2.24-7.54-6.2C23.07,23.69,28.4,25.65,28.92,29.62Z"/><path d="M36.35,89.76c.78-8.59,14.23-6.87,4.53,3.2C38.66,94.4,36.91,92.33,36.35,89.76Z"/><path d="M15.1,50c-.69-6.71,12.1-6.23,5,3C19.13,54.87,15.21,55.4,15.1,50Z"/><path d="M74.35,18.77c1,4.8-11.94,8.17-5.2-1.23C70.23,15.72,73.92,12.22,74.35,18.77Z"/><path d="M30.35,63.31c1-4.49,10-1.53,8.06,4.32C37.13,68.82,35.12,69.09,30.35,63.31Z"/><path d="M50.83,36.8c-.11-6.71,10.78,1.72,4.26,4.06C53.6,40.53,52.1,41.62,50.83,36.8Z"/><path d="M18,70.75c-3.07,1-6-9.73-.13-5.64C20.19,65.71,23.37,70.24,18,70.75Z"/><path d="M87.4,31.58c.27,5.74-9.49,3.47-3.54-4C85.7,28.15,86.39,28.69,87.4,31.58Z"/><path d="M52.43,77.44c-.46,8.15-9.69-5.19-2-4.54A6,6,0,0,1,52.43,77.44Z"/><path d="M69.52,58.57c-.28-5.93,8.91-.8,3.64,3.93C71.66,62,70.49,63.29,69.52,58.57Z"/><path d="M77.92,46.29c-.38,5-8.58-1.95-3.64-5.62C75.82,41,77.52,43,77.92,46.29Z"/><path d="M39.17,33.05c1,1.29,3.48,3.63.66,9.14C37.34,41.24,35.71,36.14,39.17,33.05Z"/><path d="M17.89,85.83c-2,6.93-9.72-5-2.12-3.84A9,9,0,0,1,17.89,85.83Z"/><path d="M58.43,59.44c0,7.15-7.31-.35-2.63-4.9C57.22,55.1,57.73,56.51,58.43,59.44Z"/><path d="M49.37,19.26C47,27,41.73,7.6,48.35,15.35,48.39,16.1,49,15.49,49.37,19.26Z"/><path d="M37.11,51.06c.26-4.57,7.42.27,3.49,3.81C39.17,55,37.34,54.23,37.11,51.06Z"/></g></g></svg>