<svg width="51" height="48" viewBox="0 0 51 48" fill="none" xmlns="http://www.w3.org/2000/svg">
<path fill-rule="evenodd" clip-rule="evenodd" d="M20.8742 4.12524C12.4725 5.81506 4.80551 9.60467 3.4596 19.054C2.23634 27.6417 8.08145 35.5866 15.2592 39.6065C23.0223 43.9554 32.7496 44.6779 40.4849 39.8583C48.628 34.7844 50.4752 24.6163 45.519 16.6392C39.9887 7.73707 30.7241 5.10965 20.8742 4.12524ZM26.2736 0.00538067C36.2784 1.47251 45.5657 8.59811 48.9359 18.1949C52.4103 28.0877 49.2178 38.9644 40.0197 44.385C21.4305 55.3407 -3.41468 37.0828 1.07188 16.0976C2.21106 10.7694 5.4459 6.64321 9.8408 3.52358C14.6928 0.0787687 20.56 -0.0148644 26.2736 0.00538067Z" fill="black"/>
</svg>
