<svg width="39" height="33" viewBox="0 0 39 33" fill="none" xmlns="http://www.w3.org/2000/svg">
<path fill-rule="evenodd" clip-rule="evenodd" d="M21.4711 0.376953C23.5313 2.23253 22.5413 4.14694 21.8668 6.465C21.461 7.85621 19.2319 12.424 19.847 13.7254C20.5582 15.2298 23.8974 15.5999 25.3254 16.0751C27.8124 16.9026 30.3108 17.7339 32.6644 18.9005C33.7087 19.4186 37.4759 20.6093 38.182 21.576C38.5866 22.1302 38.7339 22.5642 38.4299 23.2785C37.8957 24.5324 37.1339 23.8687 35.8322 23.5999C29.8841 22.37 23.9865 20.7972 18.4701 18.2033C16.932 21.7759 15.6297 25.4244 14.3287 29.0901C13.9475 30.1643 13.5834 32.6051 12.1351 32.7791C10.3688 32.9904 10.3448 30.623 10.4624 29.3456C10.633 27.4806 11.599 25.4921 12.1819 23.7264C12.6629 22.2687 14.3502 19.2339 14.1422 17.732C14 16.6982 13.3704 16.7703 12.2482 16.3642C11.1881 15.9808 10.1273 15.5993 9.06776 15.2115C7.3691 14.5896 5.67741 13.9658 4.02427 13.2281C3.11709 12.8232 1.21865 12.35 0.561822 11.5098C0.180619 11.0227 -0.244206 9.26703 0.236882 8.78115C1.36152 7.643 8.84143 10.7063 10.3795 11.1245C11.3998 11.4022 12.4252 11.6142 13.4152 11.978C13.7901 12.1165 14.2339 12.6783 14.6391 12.6992C16.3599 12.7865 16.4965 11.4624 17.03 10.042C18.2697 6.74147 19.6156 3.37448 21.4711 0.376953Z" fill="black"/>
</svg>
