<svg width="49" height="36" viewBox="0 0 49 36" fill="none" xmlns="http://www.w3.org/2000/svg">
<path fill-rule="evenodd" clip-rule="evenodd" d="M40.9879 24.542C28.9329 19.0872 16.8773 13.6325 4.82236 8.17772C4.328 13.6464 3.83364 19.1145 3.33864 24.5831C3.20462 26.0629 2.65715 28.076 2.89042 29.5362C3.14013 31.0944 2.6072 30.928 4.63712 30.7066C7.23284 30.4226 9.83742 29.781 12.4066 29.3224C17.0253 28.4974 21.9373 28.262 26.458 27.0486C28.7648 26.4292 30.9742 26.3514 33.3158 25.9769C35.8875 25.5656 38.3903 24.8039 40.9879 24.542ZM0.20874 35.1137C0.20874 28.9535 0.892762 22.8762 1.45603 16.7445C1.96304 11.2278 2.15837 5.96912 3.95754 0.713013C5.6385 3.76811 10.2932 4.98914 13.1734 6.56129C17.1422 8.7275 21.369 10.3224 25.4313 12.2957C29.4216 14.2335 33.2652 16.4586 37.26 18.392C39.2855 19.3726 41.342 20.2874 43.3637 21.2756C44.6293 21.8943 47.6308 22.8901 48.4179 24.039C50.8082 27.5262 42.6272 27.8635 41.048 28.1709C36.3124 29.0952 31.5217 29.6159 26.7949 30.5662C22.388 31.4531 17.9729 32.2762 13.5502 33.0803C9.173 33.8762 4.66306 35.1137 0.20874 35.1137Z" fill="black"/>
</svg>
