<svg width="19" height="46" viewBox="0 0 19 46" fill="none" xmlns="http://www.w3.org/2000/svg">
<path fill-rule="evenodd" clip-rule="evenodd" d="M10.4323 26.524C10.0947 19.3282 11.0563 12.1127 10.4829 4.93589C0.623469 13.683 5.48111 27.201 11.153 36.6921L10.4323 26.524ZM14.7001 26.1128C14.7627 29.6278 14.9619 33.141 14.6205 36.6383C14.262 40.3096 15.9828 42.2006 18.2258 44.9046C16.321 46.8392 11.9502 42.3284 10.7434 40.9986C8.25827 38.2604 6.40915 34.6227 4.76359 31.3347C1.2588 24.3306 -1.15484 16.8317 1.65013 9.14178C2.69006 6.29167 3.96199 2.41665 6.71512 0.757191C9.73819 -1.06486 12.0507 1.50499 13.3049 4.14823C16.3672 10.5975 14.0326 19.1903 14.7001 26.1128Z" fill="black"/>
</svg>
