<svg width="74" height="35" viewBox="0 0 74 35" fill="none" xmlns="http://www.w3.org/2000/svg">
<path fill-rule="evenodd" clip-rule="evenodd" d="M72.801 0.791138C73.7429 3.1579 72.1789 3.68744 70.2811 4.50736C67.8194 5.57086 65.3982 6.69319 62.8916 7.65103C57.6186 9.66478 52.3077 11.5349 47.1605 13.865C37.3434 18.3081 27.3936 22.5748 17.7289 27.3323C15.3272 28.5148 12.9237 29.6928 10.5006 30.8316C7.99462 32.0096 5.12074 33.9917 2.43968 34.6648C0.10126 35.2519 -0.142758 33.5855 1.24297 32.0507C3.02951 30.0711 5.79149 28.5932 8.03508 27.2172C17.2687 21.553 27.3462 16.9422 37.4313 13.0457C49.088 8.54118 60.7763 4.2195 72.801 0.791138Z" fill="black"/>
</svg>
