<svg width="44" height="24" viewBox="0 0 44 24" fill="none" xmlns="http://www.w3.org/2000/svg">
<path fill-rule="evenodd" clip-rule="evenodd" d="M11.5007 17.6151C16.247 17.121 20.9738 16.4099 25.7152 15.9404C30.2049 15.4957 34.1762 15.0224 38.2778 12.9638C32.676 11.2733 27.0617 9.67269 21.4126 8.14546C18.6107 7.38817 15.8146 6.5866 13.0002 5.87929C10.823 5.33141 8.92517 5.01634 8.08817 2.63818C7.11398 -0.13032 9.82286 0.289136 11.5114 0.99265C13.8403 1.96251 16.3773 2.56543 18.7909 3.37207C24.1783 5.17198 29.5986 6.82765 35.0366 8.46433C36.727 8.97299 46.522 10.8545 42.9925 14.1247C41.4823 15.5248 38.1121 16.2934 36.2656 17.2987C33.8968 18.5881 31.3181 19.1018 28.6832 19.6149C23.1915 20.6841 17.4924 21.0947 11.9331 22.0221C9.09395 22.496 6.25548 22.9699 3.41701 23.4437C1.75375 23.7208 1.11336 23.6936 0.67905 21.8374C0.362962 20.4886 0.775142 19.1391 1.07859 17.8327C1.84858 14.5131 2.70518 11.2107 3.55293 7.91075C3.87534 6.65176 4.4462 1.11729 5.56831 0.511838C8.11409 -0.861659 6.14991 6.80044 5.96089 7.73867C5.24653 11.2777 4.39815 14.7922 4.01631 18.3837C6.51657 18.1573 9.00988 17.9225 11.5007 17.6151Z" fill="black"/>
</svg>
