<svg width="34" height="87" viewBox="0 0 34 87" fill="none" xmlns="http://www.w3.org/2000/svg">
<path fill-rule="evenodd" clip-rule="evenodd" d="M20.5702 8.18674C15.1904 8.04819 7.00115 8.03237 7.30269 15.3845C7.45189 19.0248 9.42427 21.6984 11.0445 24.8123C12.7457 28.0844 14.0069 31.4647 14.5063 35.1328C16.5261 49.9794 11.1071 64.4837 6.20588 78.2085C16.7323 69.7062 24.3342 57.8756 28.3257 44.908C30.2608 38.6194 31.0137 30.5366 30.3885 23.9886C30.0756 20.7121 28.8681 17.7746 27.4141 14.8556C26.684 13.3891 25.9538 11.7144 24.7893 10.5276C23.623 9.33818 22.0059 8.94214 20.5702 8.18674ZM1.80338 86.712C-1.67233 80.9922 3.79981 72.5703 5.58887 66.9928C7.72816 60.3246 9.70182 53.3818 10.6159 46.427C11.5737 39.142 10.3372 33.4778 6.96323 27.0431C3.94585 21.2903 2.15488 13.6289 5.50921 7.54206C6.86017 5.09242 8.8547 4.79128 11.226 3.81383C14.1365 2.61494 14.9381 0.586637 18.5099 0.908027C24.8829 1.48058 27.8314 7.52941 30.202 12.683C35.7298 24.6972 34.2271 40.2017 29.513 52.2658C26.7997 59.2073 23.7051 66.4152 19.0985 72.3261C16.8397 75.2243 14.1846 77.7366 11.4295 80.1546C8.44884 82.7693 5.77851 85.9212 1.80338 86.712Z" fill="black"/>
</svg>
