<svg width="23" height="28" viewBox="0 0 23 28" fill="none" xmlns="http://www.w3.org/2000/svg">
<path fill-rule="evenodd" clip-rule="evenodd" d="M6.14906 21.8037C10.695 22.1643 15.1734 22.5192 19.72 22.8077C18.9355 16.571 18.1503 10.3336 17.3658 4.09627C14.7353 4.70615 12.1048 5.31541 9.47431 5.92402C8.23082 6.21188 6.32354 6.28779 5.22292 6.90906C4.81138 7.00396 4.39919 7.09947 3.98827 7.195C3.97689 8.00417 3.96805 8.81399 3.96046 9.62379C3.92949 12.019 3.86056 14.4117 3.7613 16.8051C3.71958 17.8078 3.37002 19.2762 3.60961 20.2695C3.18415 21.2741 3.45473 21.7012 4.42385 21.5506C4.99913 21.6347 5.57378 21.7196 6.14906 21.8037ZM3.01916 26.3126C-0.544422 24.5368 0.429759 19.1111 0.43545 15.6574C0.439874 13.4602 0.594751 11.2776 0.652279 9.08351C0.692108 7.57525 0.34755 5.70892 0.865934 4.25191C1.78828 1.65992 6.3014 1.73012 8.62213 1.91169C10.3429 2.04581 11.783 1.95914 13.5468 1.8459C14.416 1.79023 15.3858 1.956 16.2399 1.69914C16.4245 1.64347 18.1623 0.430654 18.0852 0.42749C21.2024 0.547063 21.2442 8.02697 21.4465 9.92494C21.9465 14.6034 22.3991 19.2901 22.8063 23.9781C22.9144 25.2188 23.3752 26.6214 22.1975 27.3293C21.1354 27.9683 18.3204 27.3369 17.1458 27.3008C12.4108 27.1579 7.70232 26.4189 3.01916 26.3126Z" fill="black"/>
</svg>
