<svg width="52" height="78" viewBox="0 0 52 78" fill="none" xmlns="http://www.w3.org/2000/svg">
<path fill-rule="evenodd" clip-rule="evenodd" d="M5.0622 56.9515C4.96169 57.4918 4.86116 58.0321 4.76064 58.573C4.82196 58.5869 9.66191 49.2299 10.4635 48.1C13.1831 44.2693 16.7221 41.082 20.1339 37.8826C27.361 31.1056 35.8195 25.6357 42.9018 18.7378C45.232 16.4685 49.4069 13.03 48.4852 9.19293C47.5691 5.37927 39.8363 6.15428 37.1882 7.25763C33.0366 8.98794 29.6646 12.6067 26.5707 15.7599C23.1962 19.1996 19.7944 22.6008 16.9345 26.4935C13.8507 30.6912 10.9231 35.2375 9.03353 40.1089C6.91637 45.5662 6.08949 51.214 5.0622 56.9515ZM6.6515 73.6941C3.36734 74.7076 7.48469 75.3922 6.19821 77.1484C4.78719 79.0742 2.41527 73.1406 2.06062 72.0201C-0.0299935 65.4006 0.905001 57.359 2.04671 50.6382C2.62326 47.2478 2.99561 43.8018 3.77319 40.448C4.5318 37.1778 6.18367 34.0702 7.70975 31.0955C10.7651 25.1435 14.811 19.5982 19.4025 14.7451C24.0079 9.87619 29.1412 5.00474 35.2183 2.00722C40.2397 -0.468367 48.1988 1.24929 50.5492 6.65661C52.9509 12.1822 49.7027 18.2013 45.8616 22.0865C40.851 27.1534 35.3915 32.1862 29.7632 36.5553C26.871 38.8012 24.4466 41.5172 21.6366 43.8606C18.6458 46.3552 16.0583 48.8643 13.8469 52.0902C11.7051 55.2161 9.50071 58.3396 8.10866 61.8881C6.58448 65.7739 6.6515 69.5831 6.6515 73.6941Z" fill="black"/>
</svg>
