<svg width="76" height="108" viewBox="0 0 76 108" fill="none" xmlns="http://www.w3.org/2000/svg">
<path fill-rule="evenodd" clip-rule="evenodd" d="M20.5511 91.1531C23.3346 90.6034 25.6774 88.3802 27.9507 86.71C30.8499 84.5799 33.6005 82.2586 36.4156 80.0209C41.7202 75.8043 46.5336 71.1796 51.1105 66.15C60.1412 56.2274 66.9396 43.4547 70.0303 30.4049C71.5937 23.8018 73.5275 16.0651 72.6399 9.24123C72.3314 6.87067 71.8611 6.43604 69.5385 6.16653C68.4897 6.04506 65.8276 5.74329 64.8831 6.15578C62.4353 7.22624 61.1141 11.7807 60.3883 14.0697C58.244 20.8277 56.9822 27.8268 55.0446 34.6405C53.1455 41.3188 50.0845 48.0952 47.0576 54.3402C40.3224 68.2358 30.9612 79.8609 20.5511 91.1531ZM75.7673 14.4353C74.1028 33.3575 68.8532 51.3856 57.0827 66.6238C51.4879 73.8671 44.9082 80.169 37.7766 85.8932C30.413 91.8042 22.8927 97.3709 14.5372 101.779C12.3138 102.953 10.0873 104.122 7.83611 105.241C6.58819 105.862 3.43808 108.147 1.99861 107.786C0.845517 107.495 0.544585 106.603 0.364415 105.441C-0.0389148 102.834 1.65342 101.533 3.36472 99.8585C10.2396 93.1321 17.1361 86.3816 23.564 79.2263C36.2588 65.0953 45.7952 48.1737 51.096 29.9152C52.7289 24.2934 54.1861 18.609 55.9486 13.0271C57.022 9.62654 58.5443 3.57327 62.1123 1.87775C64.0253 0.96862 66.2549 1.85309 68.2665 1.30837C70.1536 0.797185 71.404 -0.245453 73.0123 1.50321C75.8343 4.57159 75.9601 10.5901 75.7673 14.4353Z" fill="black"/>
</svg>
